HIERARCHY
ROOT pelvis
{
  OFFSET 0 100 0
  CHANNELS 6 Xposition Yposition Zposition Zrotation Xrotation Yrotation
  JOINT pelvis_right_femur
  {
    OFFSET -10.78128 -3.44521 -0.5502486
    CHANNELS 3 Zrotation Xrotation Yrotation
    JOINT right_femur_tibia
    {
      OFFSET -0.8047443 -44.0398 -0.1307829
      CHANNELS 3 Zrotation Xrotation Yrotation
      JOINT right_tibia_foot
      {
        OFFSET 3.006224 -47.83518 -5
        CHANNELS 3 Zrotation Xrotation Yrotation
        End Site
        {
          OFFSET 0 -5 15
        }
      }
    }
  }
  JOINT pelvis_left_femur
  {
    OFFSET 10.78128 -3.44521 -0.5502486
    CHANNELS 3 Zrotation Xrotation Yrotation
    JOINT left_femur_tibia
    {
      OFFSET 0.8047443 -44.0398 -0.1307829
      CHANNELS 3 Zrotation Xrotation Yrotation
      JOINT left_tibia_foot
      {
        OFFSET -4.370144 -48.10324 -4.275266
        CHANNELS 3 Zrotation Xrotation Yrotation
        End Site
        {
          OFFSET 0 -5 15
        }
      }
    }
  }
  JOINT pelvis_spine1
  {
    OFFSET 0 6.468898 -3.129235
    CHANNELS 3 Zrotation Xrotation Yrotation
    JOINT spine1
    {
      OFFSET 0 23.15396 4.99043
      CHANNELS 3 Zrotation Xrotation Yrotation
      JOINT spine2
      {
        OFFSET 0 20.79997 -5.064912
        CHANNELS 3 Zrotation Xrotation Yrotation
        JOINT neck
        {
          OFFSET 0 14.38658 9.616178
          CHANNELS 3 Zrotation Xrotation Yrotation
          End Site
          {
            OFFSET 0 20 0
          }
        }
      }
      JOINT right_manubrium
      {
        OFFSET -5.722621 16.35077 3.967754
        CHANNELS 3 Zrotation Xrotation Yrotation
        JOINT right_clavicle
        {
          OFFSET -13.16364 1.694482 -4.693211
          CHANNELS 3 Zrotation Xrotation Yrotation
          JOINT right_humerus
          {
            OFFSET -28.5034 -0.3100689 -2.792744
            CHANNELS 3 Zrotation Xrotation Yrotation
            JOINT right_radius
            {
              OFFSET -25.15693 0.02248979 -1.271978
              CHANNELS 3 Zrotation Xrotation Yrotation
              End Site
              {
                OFFSET -15 0 0
              }
            }
          }
        }
      }
      JOINT left_manubrium
      {
        OFFSET 5.722621 16.35077 3.967754
        CHANNELS 3 Zrotation Xrotation Yrotation
        JOINT left_clavicle
        {
          OFFSET 13.16364 1.694482 -4.693211
          CHANNELS 3 Zrotation Xrotation Yrotation
          JOINT left_humerus
          {
            OFFSET 29.39168 -1.063119 -2.237045
            CHANNELS 3 Zrotation Xrotation Yrotation
            JOINT left_radius
            {
              OFFSET 24.59957 -0.9528479 0.9047498
              CHANNELS 3 Zrotation Xrotation Yrotation
              End Site
              {
                OFFSET 15 -0 -0
              }
            }
          }
        }
      }
    }
  }
}
MOTION
Frames: 9
Frame Time: 0.0416666666667
0 103.5113 0 1.678985 -0.4491477 -0.2018287 3.069429 -15.67556 11.42569 -0 40.82602 -0 -5.565658 -17.35671 -3.44999 -7.956518 8.751666 -22.70496 -0 5.803519 -0 17.94741 -9.137603 29.80682 -3.881272 -4.179165 5.760763 2.537746 11.22657 -7.534469 1.635756 22.18733 5.290614 2.108325 -24.99645 8.986433 6.764798 -21.49507 11.72168 85.89792 39.18566 -17.71882 -0 0 16.28567 -5.34873 7.125288 4.991315 3.895857 -18.2583 -3.697429 -91.37158 21.55029 21.32382 0 0 -16.24026 15.81589 12.76163 -1.995654
0.3076844 103.1772 1.498149 1.587887 -0.4029802 -0.422704 3.117882 -16.73087 10.93991 -0 39.55767 -0 -5.97025 -16.62363 -3.211828 -7.88347 8.986223 -22.47023 -0 5.518722 -0 17.75286 -9.716983 29.47485 -3.860839 -3.853659 5.629856 2.571737 11.20188 -7.520833 1.630645 22.21091 5.369552 2.274271 -25.10789 8.935931 6.651695 -21.38684 11.68526 86.03676 39.05361 -17.88423 -0 0 15.84631 -5.567707 6.883511 5.15977 3.951895 -18.44607 -3.946405 -91.25323 21.76741 21.05968 0 0 -16.68381 15.73526 12.81484 -1.884268
0.5295084 102.1764 3.531927 0.4321594 0.2877379 -0.4659365 3.997932 -24.66905 7.335959 -0 28.65967 -0 -6.811431 -12.76849 -2.444223 -6.735608 11.96316 -21.03168 -0 4.207086 -0 10.9703 -18.76037 26.14816 -3.536088 -2.256706 4.463423 2.714312 9.341072 -7.467057 1.978156 22.29354 6.400475 3.001622 -25.86328 9.967863 4.957454 -19.2884 10.88596 87.09229 35.2146 -19.65094 -0 0 13.23908 -8.042299 7.851844 4.911649 6.175396 -20.25635 -2.466678 -91.67119 25.15753 18.87964 0 0 -18.00511 12.58321 16.80519 0.4485659
0.69795 100.8747 5.988593 0.2254586 0.4265602 -0.4204964 3.86045 -27.69828 5.24973 -0 23.78134 -0 -7.459866 -10.12289 -1.888546 -6.423819 13.21382 -19.78602 -0 4.254138 -0 8.721912 -21.27276 24.14715 -3.451553 -1.626879 3.974658 2.717746 8.973065 -7.495281 1.943762 22.24524 6.727954 3.429016 -25.68165 9.848721 4.414644 -18.42132 10.7149 87.61594 33.97126 -20.35769 -0 0 11.82991 -9.422787 7.932148 5.172657 6.968986 -21.17209 -2.508236 -90.78831 25.05435 17.01696 0 0 -19.36423 12.2668 17.29057 0.2255471
0.8781758 100.064 7.976058 -0.5355797 1.336986 -0.3295191 5.753184 -25.79131 9.220643 -0 29.471 -0 -6.116716 -13.3005 -3.108397 -6.082941 11.94305 -21.6194 -0 5.122646 -0 7.360812 -21.85648 25.59824 -3.192542 -2.506151 4.401075 3.003542 8.483638 -7.806275 2.181818 21.60386 6.787359 2.9904 -26.96405 10.84674 5.16397 -18.99151 10.74848 86.4057 34.39548 -19.87592 -0 0 14.71284 -7.156539 9.164077 3.816573 7.057194 -20.33768 -0.02584817 -94.21569 27.42294 21.14163 0 0 -15.77912 9.599894 18.63629 3.556878
1.051958 99.36555 9.846752 -1.022758 1.775812 -0.1986333 6.62675 -26.11077 10.50018 -0 30.74566 -0 -5.919092 -13.84681 -3.480819 -5.78547 11.74262 -22.10732 -0 5.400402 -0 6.064058 -22.79518 25.56546 -2.985952 -2.509904 4.386409 3.141 8.160458 -7.909884 2.311361 21.33907 6.896315 2.963202 -27.58973 11.26719 5.359874 -19.02971 10.69253 86.03027 34.36746 -19.83646 -0 0 15.48837 -6.384718 9.567979 3.336721 7.134952 -20.11933 0.8393698 -95.73266 28.87599 22.75572 0 0 -14.6804 7.956636 19.24133 5.597096
1.222943 98.72692 11.64659 -1.333892 2.028011 -0.050139 7.157717 -26.46415 11.25939 -0 31.40123 -0 -5.87756 -14.13317 -3.701305 -5.586967 11.67871 -22.40917 -0 5.486355 -0 5.25814 -23.3894 25.4913 -2.84819 -2.422261 4.348002 3.221891 7.945562 -7.942724 2.411303 21.216 6.950917 2.961136 -27.98964 11.52784 5.459414 -19.04051 10.63517 85.83945 34.39511 -19.82545 -0 0 15.85362 -5.878688 9.744631 3.067806 7.109015 -19.94674 1.247627 -96.71922 29.95864 23.80269 0 0 -14.13797 6.809654 19.56944 7.083014
1.394975 98.17105 13.34016 -1.632201 2.231716 0.1153177 7.673522 -26.5888 12.14008 -0 32.4392 -0 -5.799261 -14.64619 -3.968863 -5.406135 11.54387 -22.82106 -0 5.530307 -0 4.585092 -23.82567 25.56809 -2.707227 -2.3603 4.335372 3.286679 7.743274 -7.952882 2.525164 21.12819 6.978589 2.925843 -28.38411 11.8092 5.577954 -19.10826 10.57983 85.62938 34.48689 -19.75906 -0 0 16.29181 -5.277218 9.908616 2.772503 7.005566 -19.69588 1.626906 -97.84861 31.11939 25.04529 0 0 -13.52539 5.606968 19.88226 8.690857
1.566192 97.66533 14.95352 -1.854016 2.363317 0.2892659 8.042925 -26.77212 12.76936 -0 33.1154 -0 -5.785061 -15.01722 -4.172757 -5.263529 11.49626 -23.13571 -0 5.507551 -0 4.075666 -24.17303 25.59605 -2.601363 -2.262638 4.308572 3.33003 7.576122 -7.939257 2.625829 21.09727 6.98493 2.902931 -28.67692 12.01865 5.644096 -19.14519 10.519 85.50838 34.57263 -19.72748 -0 0 16.53764 -4.8037 9.979978 2.562353 6.881869 -19.48503 1.830655 -98.73348 32.1251 26.00738 0 0 -13.17224 4.607184 20.09402 10.05434
